<?xml version="1.0" standalone="no"?>
<!DOCTYPE svg PUBLIC "-//W3C//DTD SVG 20010904//EN"
 "http://www.w3.org/TR/2001/REC-SVG-20010904/DTD/svg10.dtd">
<svg version="1.0" xmlns="http://www.w3.org/2000/svg"
 width="1200.000000pt" height="1200.000000pt" viewBox="0 0 1200.000000 1200.000000"
 preserveAspectRatio="xMidYMid meet">
<metadata>
Created by potrace 1.14, written by Peter Selinger 2001-2017
</metadata>
<g transform="translate(0.000000,1200.000000) scale(0.100000,-0.100000)"
fill="#000000" stroke="none">
<path d="M5715 10840 c-41 -7 -181 -39 -290 -66 -11 -3 -31 -7 -45 -10 -42 -8
-213 -64 -250 -81 -19 -9 -56 -24 -83 -33 -26 -9 -58 -26 -70 -36 -12 -11 -40
-28 -62 -38 -22 -11 -61 -34 -88 -53 -26 -19 -59 -38 -73 -43 -42 -16 -242
-164 -253 -186 -5 -12 -28 -37 -51 -55 -23 -19 -78 -70 -123 -115 -45 -44 -86
-81 -92 -82 -18 -2 -280 -64 -311 -73 -17 -5 -40 -11 -50 -13 -67 -14 -123
-31 -149 -46 -16 -10 -41 -21 -55 -25 -14 -4 -39 -18 -56 -31 -17 -13 -37 -24
-44 -24 -7 0 -58 33 -114 72 -55 40 -104 72 -108 70 -5 -1 -8 2 -8 8 0 5 -8
10 -17 11 -10 0 -38 14 -63 30 -25 16 -56 34 -70 40 -14 6 -43 20 -65 30 -39
18 -213 62 -390 99 -73 15 -121 18 -260 15 -187 -5 -238 -9 -335 -32 -73 -16
-85 -19 -155 -28 -77 -10 -387 -84 -415 -99 -14 -8 -41 -17 -60 -21 -19 -4
-40 -11 -46 -16 -6 -5 -19 -10 -30 -12 -72 -13 -141 -32 -154 -43 -8 -7 -35
-19 -60 -28 -25 -8 -46 -20 -48 -26 -2 -5 -12 -10 -23 -10 -11 0 -36 -11 -57
-23 -20 -13 -58 -32 -83 -41 -40 -15 -407 -270 -485 -336 -29 -26 -112 -136
-208 -278 -57 -86 -74 -130 -112 -290 -13 -59 -26 -114 -28 -122 -34 -129 -37
-251 -11 -350 9 -36 19 -74 21 -85 2 -11 7 -33 11 -50 4 -16 7 -32 8 -35 10
-51 30 -122 40 -145 7 -16 17 -43 21 -60 3 -16 12 -37 19 -45 7 -8 30 -49 50
-90 96 -191 303 -432 529 -615 159 -129 453 -332 489 -339 20 -4 45 -15 57
-24 l22 -18 -24 -29 c-14 -17 -42 -57 -64 -90 -37 -57 -50 -82 -88 -169 -10
-22 -40 -131 -67 -243 -48 -198 -62 -311 -47 -373 4 -14 23 -91 42 -173 l36
-147 78 -107 c67 -92 92 -118 173 -175 52 -37 99 -71 104 -75 6 -5 63 -21 128
-37 81 -19 117 -32 117 -42 0 -8 -13 -81 -29 -162 -16 -81 -32 -160 -35 -177
-2 -16 -16 -91 -31 -165 -41 -213 -60 -416 -60 -635 0 -167 7 -212 72 -505 55
-245 118 -470 133 -470 4 0 7 -6 7 -12 0 -18 55 -132 68 -140 5 -4 6 -8 2 -8
-5 0 7 -22 27 -49 20 -27 36 -52 36 -55 0 -9 93 -143 181 -261 60 -81 165
-194 247 -266 16 -15 31 -31 33 -36 4 -8 112 -90 179 -135 14 -9 62 -44 108
-77 46 -34 86 -61 89 -61 3 0 22 -13 42 -28 20 -15 50 -34 66 -42 17 -8 53
-29 80 -46 71 -44 217 -113 294 -139 36 -13 106 -37 154 -54 48 -17 98 -33
110 -35 12 -2 33 -9 47 -15 14 -6 63 -19 110 -30 166 -39 345 -83 365 -89 11
-3 153 -6 315 -7 326 0 300 5 403 -74 36 -27 80 -58 98 -68 19 -10 60 -35 92
-56 31 -20 63 -37 70 -37 6 0 31 -11 54 -24 24 -14 59 -27 78 -30 20 -3 46
-13 58 -20 19 -13 45 -21 137 -41 8 -2 72 -17 142 -34 70 -17 142 -31 160 -31
18 0 50 -5 71 -11 55 -15 144 -14 282 4 139 18 412 80 467 107 21 10 56 21 78
25 22 4 50 15 62 24 13 10 36 21 52 25 17 4 42 16 57 27 15 10 30 19 33 19 8
0 79 46 190 125 55 39 103 69 107 68 5 -2 66 -5 136 -8 70 -3 175 -8 233 -12
142 -8 641 -7 765 1 154 10 346 36 454 62 75 18 78 18 146 34 183 40 413 103
505 138 8 3 17 6 20 7 3 1 14 5 25 9 131 48 161 61 167 70 4 6 8 8 8 4 0 -4
51 19 113 51 118 62 213 102 287 121 42 12 92 32 163 66 16 8 35 14 43 14 9 0
30 11 48 25 18 14 38 25 43 25 6 0 16 7 23 15 7 8 21 15 30 15 10 0 42 16 71
35 30 19 69 40 89 46 19 6 42 17 50 24 25 22 118 65 138 65 11 0 25 7 32 15 6
8 21 17 33 21 11 4 48 26 81 50 33 24 65 44 72 44 16 0 265 179 312 223 32 31
57 60 110 126 49 62 164 225 166 234 1 7 7 21 13 32 12 22 63 225 90 360 8 44
18 87 21 95 2 8 6 28 8 43 2 15 13 78 24 140 11 62 23 130 26 152 2 22 7 51 9
65 2 14 7 50 10 80 3 30 12 105 21 165 34 247 34 241 -37 530 -27 108 -27 109
-113 227 -91 124 -100 134 -201 207 -150 108 -180 128 -205 133 -14 3 -95 22
-182 42 -183 42 -262 45 -393 15 -134 -32 -136 -32 -162 21 -12 25 -22 53 -22
62 -1 9 -7 29 -15 45 -26 50 -46 101 -46 115 0 13 -23 64 -45 98 -5 8 -11 24
-12 35 -2 11 -8 30 -13 43 -18 40 -28 66 -39 100 -6 18 -19 45 -30 60 -10 15
-24 46 -31 70 -8 23 -19 47 -27 53 -7 6 -13 19 -13 28 0 9 -4 21 -9 27 -4 5
-11 21 -15 36 -7 31 13 57 85 106 25 17 73 61 106 99 61 70 246 326 265 369 6
13 15 24 20 24 4 0 8 10 8 23 0 13 5 28 12 35 12 12 22 37 54 127 9 28 21 59
25 70 4 11 11 34 14 50 5 24 26 44 104 98 54 38 111 80 126 93 15 13 31 24 34
24 3 0 22 15 42 33 19 17 74 68 123 112 48 44 95 84 104 88 10 4 24 19 32 32
8 13 42 61 75 107 33 46 64 91 70 100 12 22 76 115 126 184 21 28 42 71 49 95
6 24 15 53 20 64 5 11 27 99 49 195 23 96 45 189 49 205 18 67 13 143 -18 271
-39 160 -40 163 -46 194 -8 44 -37 124 -56 158 -10 18 -18 37 -18 42 0 20
-154 222 -211 276 -89 86 -87 83 -179 152 -134 99 -282 200 -310 210 -8 3 -31
17 -50 32 -19 15 -49 30 -66 33 -17 3 -55 17 -85 30 -30 14 -65 28 -79 32 -14
4 -29 11 -35 15 -5 4 -35 13 -65 20 -30 7 -60 16 -66 21 -5 5 -35 15 -66 23
-31 8 -65 19 -75 24 -22 11 -292 76 -383 92 -36 6 -105 19 -155 30 -49 11
-117 22 -150 26 -91 10 -408 13 -425 4 -8 -5 -28 -10 -45 -13 -25 -4 -105 -23
-349 -82 -10 -2 -24 -9 -32 -16 -8 -6 -14 -9 -14 -6 0 16 -95 -26 -153 -67
-35 -25 -67 -46 -70 -46 -3 0 -52 -33 -108 -74 l-103 -74 -53 34 c-29 19 -58
34 -63 34 -5 0 -25 9 -44 19 -19 11 -94 34 -168 52 -73 17 -185 45 -248 60
l-115 28 -90 95 c-53 56 -141 132 -215 186 -69 50 -132 96 -140 103 -51 41
-192 137 -201 137 -6 0 -22 9 -36 20 -14 11 -31 20 -37 20 -7 0 -27 11 -46 25
-19 14 -40 25 -47 25 -8 0 -33 9 -56 19 -79 36 -236 85 -337 106 -8 2 -55 12
-105 24 -49 11 -106 23 -125 27 -54 11 -379 13 -435 4z"/>
</g>
</svg>
